HIERARCHY
ROOT ui
{
	 OFFSET 0 0 0
	 CHANNELS 3 XPosition YPosition Z Position
	 EndSite
	 {
	 OFFSET 0 -1 0
	 }
}
ROOT li
{
	 OFFSET 0 0 0
	 CHANNELS 3 XPosition YPosition Z Position
	 EndSite
	 {
	 OFFSET 0 -1 0
	 }
}
ROOT ul
{
	 OFFSET 0 0 0
	 CHANNELS 3 XPosition YPosition Z Position
	 EndSite
	 {
	 OFFSET 0 -1 0
	 }
}
ROOT ll
{
	 OFFSET 0 0 0
	 CHANNELS 3 XPosition YPosition Z Position
	 EndSite
	 {
	 OFFSET 0 -1 0
	 }
}
ROOT tt
{
	 OFFSET 0 0 0
	 CHANNELS 3 XPosition YPosition Z Position
	 EndSite
	 {
	 OFFSET 0 -1 0
	 }
}
ROOT tb
{
	 OFFSET 0 0 0
	 CHANNELS 3 XPosition YPosition Z Position
	 EndSite
	 {
	 OFFSET 0 -1 0
	 }
}
ROOT td
{
	 OFFSET 0 0 0
	 CHANNELS 3 XPosition YPosition Z Position
	 EndSite
	 {
	 OFFSET 0 -1 0
	 }
}
ROOT v
{
	 OFFSET 0 0 0
	 CHANNELS 3 XPosition YPosition Z Position
	 EndSite
	 {
	 OFFSET 0 -1 0
	 }
}
ROOT bn
{
	 OFFSET 0 0 0
	 CHANNELS 3 XPosition YPosition Z Position
	 EndSite
	 {
	 OFFSET 0 -1 0
	 }
}
MOTION
Frames: 21
Frame Time: 0.002
-0.006563934803009033	-9.394059777259827E-4	0		0.4382325439453125	-2.5187958984375	0		-1.03171435546875	0.19924981689453125	0		-0.863842041015625	-2.784560546875	0		1.6547371826171875	-1.344665771484375	0		3.0086904296875	-0.41159567260742186	0		4.3601171875	0.5535153198242188	0		6.02695556640625	0.5978589477539062	0		-0.09669052124023438	5.93904443359375	0		
-0.006600759029388428	-0.0014404480457305907	0		0.38431582641601564	-2.51049951171875	0		-1.0217666625976562	0.1976026153564453	0		-0.7790999145507812	-2.80031640625	0		1.6788287353515625	-1.336525634765625	0		3.013874267578125	-0.39717730712890625	0		4.34318701171875	0.5602578735351562	0		6.0310380859375	0.6052879028320313	0		-0.10046552276611329	5.9556005859375	0		
-0.002620820999145508	9.762870073318482E-4	0		0.43917916870117185	-2.516835205078125	0		-1.027756591796875	0.2021641082763672	0		-0.8530588989257812	-2.793748291015625	0		1.6319068603515625	-1.3273502197265625	0		2.98291845703125	-0.39023443603515623	0		4.3262265625	0.5669974975585937	0		6.03097216796875	0.60478173828125	0		-0.06744696044921875	5.96158740234375	0		
0.004391909122467041	0.0073297290802001955	0		0.4101111450195313	-2.5169453125	0		-1.02784814453125	0.20161416625976564	0		-0.7853129272460937	-2.807301025390625	0		1.6518541259765624	-1.32617626953125	0		2.996740966796875	-0.3969607849121094	0		4.28313720703125	0.5671233520507812	0		6.03087744140625	0.6042844848632812	0		-0.06758148956298828	5.961044921875	0		
-0.006868931770324707	-0.0030636351108551023	0		0.40799728393554685	-2.5194677734375	0		-1.0388157958984374	0.21120643615722656	0		-0.8165531005859376	-2.818408203125	0		1.6159368896484374	-1.3141832275390626	0		2.961650146484375	-0.3959654235839844	0		4.27401708984375	0.5667498779296875	0		6.026638671875	0.595858642578125	0		-0.10283610534667968	5.9560048828125	0		
-0.007005115032196045	-0.003632246017456055	0		0.4038273010253906	-2.52497021484375	0		-1.038955322265625	0.21062159729003907	0		-0.7759151611328124	-2.837592529296875	0		1.60892529296875	-1.307623779296875	0		2.92768603515625	-0.3849867553710937	0		4.2468896484375	0.5676469116210937	0		6.017494140625	0.5955177001953125	0		-0.10403633880615235	5.95744921875	0		
-0.007160151004791259	-0.00420896577835083	0		0.3777970886230469	-2.520156494140625	0		-1.11810595703125	0.21118955993652344	0		-0.8489342651367188	-2.832108642578125	0		1.588826904296875	-1.3058748779296876	0		2.923465087890625	-0.39044775390625	0		4.2336220703125	0.5603440551757812	0		6.021208984375	0.586998291015625	0		-0.10333515167236328	5.95485595703125	0		
0.0038164989948272707	0.005047226905822754	0		0.4097093811035156	-2.519199951171875	0		-1.0301865234375	0.2162882385253906	0		-0.767285400390625	-2.8499130859375	0		1.584833984375	-1.2963626708984375	0		2.9196875	-0.36490771484375	0		4.23274951171875	0.5808695068359375	0		6.03414306640625	0.594358642578125	0		-0.08847604370117187	5.96505126953125	0		
0.0036381020545959474	0.004466846942901611	0		0.4034909362792969	-2.526681396484375	0		-1.0513385009765626	0.21799073791503906	0		-0.7904644775390625	-2.855174072265625	0		1.5688509521484375	-1.285670166015625	0		2.895506103515625	-0.36606353759765625	0		4.213470703125	0.574673095703125	0		6.02595068359375	0.5940443115234375	0		-0.10591692352294922	5.95671923828125	0		
-0.003645539999008179	-0.0030060200691223145	0		0.429300537109375	-2.5326279296875	0		-1.05152587890625	0.21738632202148436	0		-0.7508383178710938	-2.874356201171875	0		1.56870361328125	-1.2862047119140625	0		2.886379150390625	-0.36343109130859375	0		4.19227587890625	0.5745169677734375	0		5.9973896484375	0.5690418701171875	0		-0.10625729370117187	5.9561396484375	0		
-7.668970227241517E-4	3.806520104408264E-4	0		0.37224240112304685	-2.5293505859375	0		-1.051711669921875	0.21678775024414063	0		-0.7940054321289063	-2.87931640625	0		1.5626634521484375	-1.2796422119140625	0		2.878049560546875	-0.3748001708984375	0		4.1749794921875	0.5673161010742187	0		5.98919482421875	0.5687593994140625	0		-0.1416599426269531	5.95208056640625	0		
0.017956167221069335	-0.007454144954681397	0		0.42706549072265626	-2.535700439453125	0		-1.0518907470703125	0.21619876098632812	0		-0.777416259765625	-2.902143798828125	0		1.555631591796875	-1.2730526123046875	0		2.8561533203125	-0.3569537353515625	0		4.15477734375	0.566173583984375	0		5.99000537109375	0.5683635864257812	0		-0.10792418670654297	5.957021484375	0		
-0.001984163999557495	0.0072932009696960445	0		0.3740895385742187	-2.528458740234375	0		-1.0470009765625	0.21955003356933595	0		-0.7455941162109375	-2.910176513671875	0		1.5427000732421876	-1.2603599853515626	0		2.812876220703125	-0.36578155517578126	0		4.12560205078125	0.5661805419921875	0		5.99370947265625	0.559946533203125	0		-0.09310935974121094	5.9672548828125	0		
0.024748706817626955	-0.0016229939460754394	0		0.4269147033691406	-2.5367412109375	0		-1.063066650390625	0.22522468566894532	0		-0.7459548950195313	-2.93172216796875	0		1.5285648193359376	-1.26263134765625	0		2.838751953125	-0.36559481811523437	0		4.104322265625	0.5580935668945313	0		5.985544921875	0.5597289428710938	0		-0.07553562927246094	5.960466796875	0		
0.0026605079174041747	0.0011955209970474243	0		0.36788427734375	-2.535372314453125	0		-1.068265625	0.22076162719726564	0		-0.7181412353515625	-2.942653076171875	0		1.5195164794921876	-1.2599522705078126	0		2.8345576171875	-0.37094464111328124	0		4.078172607421875	0.5581038818359375	0		5.97837890625	0.558525146484375	0		-0.110904541015625	5.95747119140625	0		
-0.01353335952758789	-0.004046692848205567	0		0.4207244873046875	-2.54460107421875	0		-1.0683961181640624	0.22025141906738283	0		-0.7622627563476563	-2.949513671875	0		1.5045963134765625	-1.2491600341796876	0		2.769569580078125	-0.3623840942382813	0		4.06993017578125	0.5508822021484375	0		5.97799072265625	0.5412521362304688	0		-0.11122667694091797	5.95699267578125	0		
0.002421717882156372	2.773779928684235E-4	0		0.40532086181640625	-2.570811279296875	0		-1.0634619140625	0.22369883728027343	0		-0.7096453247070312	-2.975746337890625	0		1.5104212646484374	-1.256638916015625	0		2.762322509765625	-0.372632080078125	0		4.04468310546875	0.54293798828125	0		5.98685595703125	0.5408804321289062	0		-0.14365596008300782	5.94900830078125	0		
0.00536787223815918	0.0038248949050903322	0		0.4554072265625	-2.563927978515625	0		-1.0695223388671875	0.22733981323242186	0		-0.7357534790039062	-2.982803955078125	0		1.506497314453125	-1.2469398193359376	0		2.796379150390625	-0.3624382019042969	0		4.035453369140625	0.535797119140625	0		5.99207177734375	0.5646005859375	0		-0.09472955322265625	5.96488671875	0		
-0.007668426990509033	0.008641483306884766	0		0.365725341796875	-2.53999072265625	0		-1.0855516357421875	0.23316275024414063	0		-0.6760404663085937	-3.003059814453125	0		1.4903458251953126	-1.2530277099609375	0		2.736302490234375	-0.36085015869140624	0		4.02224072265625	0.5297523803710937	0		5.98469921875	0.5475375366210937	0		-0.11315570068359375	5.95677294921875	0		
0.002090847015380859	-8.291890025138855E-4	0		0.4185960693359375	-2.548065673828125	0		-1.09059765625	0.2378689270019531	0		-0.7201295776367187	-3.008779052734375	0		1.4833795166015624	-1.2462049560546875	0		2.723162841796875	-0.3638976745605469	0		4.004013916015625	0.5228209838867187	0		5.9845703125	0.5474143676757812	0		-0.11346979522705078	5.95644140625	0		
-0.01005002212524414	-0.0029407689571380614	0		0.4182121276855469	-2.573332275390625	0		-1.051723388671875	0.23698989868164064	0		-0.6804159545898437	-3.02865771484375	0		1.51407666015625	-1.262879638671875	0		2.71591943359375	-0.37398672485351564	0		3.9857841796875	0.5159329223632813	0		5.984423828125	0.5463359985351562	0		-0.11378740692138672	5.95615380859375	0		
